<svg xmlns="http://www.w3.org/2000/svg" width="1024" height="1024" viewBox="0 0 1024 1024"><defs>
      <linearGradient id="gloss" x1="0" y1="0" x2="0" y2="1">
        <stop offset="0" stop-color="#fff" stop-opacity="0.18"/><stop offset="0.5" stop-color="#fff" stop-opacity="0.03"/><stop offset="1" stop-color="#fff" stop-opacity="0"/>
      </linearGradient>
      <filter id="ds" x="-25%" y="-25%" width="150%" height="150%"><feDropShadow dx="0" dy="12" stdDeviation="14" flood-color="#000" flood-opacity="0.30"/></filter>
    </defs><defs><linearGradient id="g1" x1="0" y1="0" x2="0" y2="1"><stop offset="0" stop-color="#2c2c30"/><stop offset="1" stop-color="#050507"/></linearGradient></defs><rect x="112" y="122" width="800" height="800" rx="180" fill="url(#g1)"/><rect x="112" y="122" width="800" height="400" rx="180" fill="url(#gloss)"/><rect x="112" y="122" width="800" height="800" rx="180" fill="none" stroke="#000" stroke-opacity="0.0" stroke-width="3"/><g filter="url(#ds)" stroke-linecap="round" stroke-linejoin="round"><g transform="rotate(-40 512 706)"><path d="M 526 706 L 526 358 Q 526 304 478 332 L 476 706 Z" fill="#f4f4f6"/></g><g transform="rotate(0 512 706)"><path d="M 490 706 L 490 358 L 460 346 L 460 290 L 496 290 L 503 330 L 521 330 L 528 290 L 564 290 L 564 346 L 534 358 L 534 706 Z" fill="#f4f4f6"/></g><g transform="rotate(40 512 706)"><rect x="478" y="506" width="68" height="210" rx="30" fill="#f4f4f6"/><rect x="496" y="354" width="32" height="156" fill="#f4f4f6"/><path d="M 496 354 L 528 354 L 534 306 L 490 306 Z" fill="#f4f4f6"/></g><rect x="342" y="650" width="340" height="122" rx="58" fill="#bdbdc2"/><circle cx="512" cy="710" r="28" fill="#f4f4f6"/><circle cx="512" cy="710" r="11" fill="#bdbdc2"/></g></svg>